<?xml version="1.0" encoding="iso-8859-1"?>
<!-- Generator: Adobe Illustrator 19.0.0, SVG Export Plug-In . SVG Version: 6.00 Build 0)  -->
<svg version="1.1" id="Layer_1" xmlns="http://www.w3.org/2000/svg" xmlns:xlink="http://www.w3.org/1999/xlink" x="0px" y="0px"
	 viewBox="0 0 512.005 512.005" style="enable-background:new 0 0 512.005 512.005;" xml:space="preserve">
<g>
	<g>
		<g>
			<path d="M503.851,298.719c-4.502,0-8.149,3.649-8.149,8.149c0,8.8-7.16,15.96-15.96,15.96c-1.293,0-2.563-0.16-3.788-0.457
				c1.737-2.243,2.783-5.048,2.783-8.098c0-1.354-0.204-2.69-0.61-3.976c-12.409-43.674-39.082-83.147-75.12-111.166
				c-37.024-28.786-81.383-44.411-128.327-45.217c-0.297-0.033-0.599-0.049-0.904-0.049h-59.344c-23.04,0-44.276,7.861-61.174,21.04
				c-9.511,4.559-19.717,6.884-30.362,6.884H94.941c-52.35,0-94.939,42.589-94.939,94.938v21.155L0,298.149
				c-0.026,3.352,2.003,6.378,5.114,7.627c0.984,0.396,2.015,0.588,3.034,0.588c2.203-0.001,4.363-0.894,5.934-2.562
				c15.934-16.913,37.499-26.228,60.724-26.228c4.42,0,8.854,0.349,13.193,1.037c0.41,0.131,0.831,0.23,1.26,0.296
				c4.325,0.66,8.752,0.993,13.159,0.993c4.146,0,8.275-0.303,12.356-0.887v62.859c0,8.971,7.299,16.268,16.27,16.268h57.337
				c4.502,0,8.149-3.649,8.149-8.149c0-4.501-3.648-8.149-8.149-8.149h-6.729v-23.203c8.621-4.981,16.458-11.435,23.009-18.954
				h55.386v42.188c0,8.971,7.298,16.268,16.267,16.268h57.337c4.502,0,8.149-3.649,8.149-8.149c0-4.501-3.648-8.149-8.149-8.149
				h-6.729v-66.757h41.896c30.947,0,58.703,17.258,72.458,45.083c0.095,0.192,0.196,0.38,0.304,0.565
				c2.477,4.196,7.044,6.803,11.918,6.803h1.496c6.096,7.311,15.109,11.592,24.754,11.592c17.787,0,32.259-14.471,32.259-32.259
				C512,302.368,508.353,298.719,503.851,298.719z M114.773,262.501c-7.221,1.271-14.685,1.44-21.947,0.453
				c-0.306-0.092-0.619-0.165-0.939-0.221c-5.608-0.968-11.355-1.459-17.082-1.459c-21.07,0-41.603,6.776-58.504,18.991v-1.01
				c15.691-15.481,36.334-23.985,58.504-23.985c4.425,0,8.859,0.349,13.197,1.037c0.409,0.13,0.828,0.229,1.256,0.294
				c4.326,0.66,8.755,0.994,13.16,0.994c4.146,0,8.275-0.303,12.356-0.886V262.501z M115.692,240.022
				c-7.505,1.427-15.294,1.657-22.867,0.626c-0.305-0.09-0.618-0.164-0.937-0.219c-5.604-0.967-11.35-1.458-17.082-1.458
				c-19.927,0-39.371,6.068-55.719,17.057c9.11-33.349,39.656-57.941,75.856-57.941h27.956c3.057,0,6.083-0.163,9.077-0.472
				C123.523,210.041,117.808,224.466,115.692,240.022z M321.862,258.786L321.862,258.786c-3.073-1.955-7.024-4.431-9.48-5.885
				c-4.616-2.734-8.934-5.085-13.197-7.189c-3.869-1.909-7.729-3.722-11.368-5.384c2.513,0.439,5.115,0.961,7.819,1.568
				c5.183,1.162,10.456,2.619,15.676,4.329c4.455,1.459,8.518,2.922,12.425,4.475c6.352,2.523,12.145,5.19,17.585,8.086H321.862z
				 M455.018,311.237c-16.588-32.038-48.898-51.982-84.97-52.429c-5.149-5.045-11.068-8.767-16.245-11.746
				c-7.375-4.245-15.242-8.01-24.048-11.508c-4.22-1.678-8.593-3.253-13.368-4.817c-5.713-1.872-11.494-3.468-17.183-4.744
				c-7.906-1.772-15.063-2.894-21.903-3.427c-6.14-0.476-11.943,3.01-14.421,8.643c-3.23,7.339,0.11,15.941,7.463,19.185
				c0.068,0.029,0.139,0.061,0.212,0.091l-0.001,0.001c5.909,2.577,13.681,6.024,21.42,9.844c3.89,1.92,7.852,4.078,12.108,6.598
				c1.684,0.997,4.166,2.539,6.54,4.033v70.889l-34.276,0.025v-50.341c0-4.501-3.648-8.149-8.149-8.149h-67.351
				c-2.485,0-4.833,1.133-6.379,3.078c-6.627,8.337-15.142,15.266-24.624,20.037c-2.75,1.383-4.487,4.201-4.487,7.28v28.067
				l-34.279,0.025v-88.349c0-45.965,37.395-83.359,83.36-83.359h58.568c0.218,0.021,0.441,0.033,0.665,0.036
				c43.661,0.592,84.927,15.046,119.337,41.799c32.348,25.15,56.534,60.276,68.411,99.238H455.018z"/>
			<path d="M351.984,211.685c-4.026,0-7.288,3.262-7.288,7.287c0,4.026,3.262,7.288,7.288,7.288c4.021,0,7.286-3.262,7.286-7.288
				C359.269,214.947,356.005,211.685,351.984,211.685z"/>
		</g>
	</g>
</g>
<g>
</g>
<g>
</g>
<g>
</g>
<g>
</g>
<g>
</g>
<g>
</g>
<g>
</g>
<g>
</g>
<g>
</g>
<g>
</g>
<g>
</g>
<g>
</g>
<g>
</g>
<g>
</g>
<g>
</g>
</svg>
