<?xml version="1.0" encoding="iso-8859-1"?>
<!-- Generator: Adobe Illustrator 19.0.0, SVG Export Plug-In . SVG Version: 6.00 Build 0)  -->
<svg version="1.1" id="Layer_1" xmlns="http://www.w3.org/2000/svg" xmlns:xlink="http://www.w3.org/1999/xlink" x="0px" y="0px"
	 viewBox="0 0 436.457 436.457" style="enable-background:new 0 0 436.457 436.457;" xml:space="preserve">
<g>
	<path style="fill:#333E48;" d="M150.857,291.013h-19.41v9.216h28.625C160.072,295.139,155.947,291.013,150.857,291.013z"/>
	<path style="fill:#333E48;" d="M277.596,291.013h-19.408v9.216h28.625C286.813,295.139,282.685,291.013,277.596,291.013z"/>
	<g>
		<path style="fill:#4D3D2D;" d="M143.686,163.46c-11.842,9.772-27.025,15.643-43.578,15.643H75.721
			c-28.121,0-52.641,15.338-65.699,38.094v-0.045l-0.264,0.5c-0.854,1.514-1.668,3.052-2.42,4.629l-7.336,14.027v18.512L0,255.055
			c14.568-15.463,35.234-25.117,58.154-25.117c4.668,0,9.242,0.401,13.693,1.169l-0.012,0.074c3.395,0.518,6.871,0.786,10.408,0.786
			c37.838,0,68.51-30.672,68.51-68.508h-7.067V163.46z"/>
		<path style="fill:#65513C;" d="M150.754,144.947c0,37.835-30.672,68.508-68.51,68.508c-3.537,0-7.014-0.268-10.408-0.786
			l0.012-0.074c-4.451-0.769-9.025-1.169-13.693-1.169c-22.92,0-43.586,9.653-58.154,25.116l0.002-0.235
			c0-41.818,33.9-75.718,75.719-75.718h24.387c16.553,0,31.736-5.871,43.578-15.643h7.067V144.947z"/>
	</g>
	<path style="fill:#FF9C9F;" d="M412.059,285.772c-13.451,0-24.396-10.945-24.396-24.398c0-1.657,1.344-3,3-3c1.658,0,3,1.343,3,3
		c0,10.145,8.254,18.398,18.396,18.398c10.145,0,18.398-8.253,18.398-18.398c0-1.657,1.344-3,3-3c1.658,0,3,1.343,3,3
		C436.457,274.827,425.512,285.772,412.059,285.772z"/>
	<path style="fill:#65513C;" d="M403.232,267.674v0.003c-21.271-75.094-89.84-130.309-171.486-131.417v-0.032h-51.773
		c-44.094,0-79.838,35.744-79.838,79.837v77.08c0,3.912,3.172,7.083,7.084,7.083h37.041v-31.591
		c9.301-4.68,17.434-11.33,23.855-19.409h58.76v43.916c0,3.912,3.17,7.083,7.082,7.083H271v-72.462h43.662
		c30.52,0,56.904,17.632,69.57,43.256l0.031,0.065c0.863,1.461,2.455,2.44,4.275,2.44h10.453c2.463,0,4.461-1.998,4.461-4.461
		C403.453,268.58,403.375,268.112,403.232,267.674z"/>
	<circle style="fill:#333E48;" cx="299.977" cy="185.92" r="6.358"/>
	<g>
		<path style="fill:#967A4A;" d="M311.539,226.295c-1.51-1.104-3.012-2.188-4.516-3.246c-6.068-4.148-12.115-7.864-18.105-10.885
			c-2.955-1.58-5.945-2.89-8.795-4.211c-1.418-0.671-2.881-1.193-4.279-1.774c-1.406-0.56-2.777-1.127-4.135-1.645
			c-2.762-0.933-5.371-1.884-7.895-2.665c-2.551-0.717-4.939-1.446-7.213-2.026c-2.295-0.526-4.426-1.035-6.404-1.462
			c-1.986-0.399-3.824-0.698-5.477-0.976c-0.826-0.136-1.607-0.266-2.342-0.387c-0.734-0.122-1.439-0.17-2.084-0.25
			c-1.293-0.141-2.391-0.261-3.281-0.358c-1.779-0.19-2.729-0.264-2.729-0.264c-2.293-0.173-4.561,1.09-5.541,3.315
			c-1.242,2.822,0.037,6.117,2.857,7.36l0.174,0.076c0,0,0.82,0.362,2.361,1.04c1.535,0.676,3.807,1.568,6.611,2.904
			c1.4,0.669,2.973,1.326,4.646,2.134c1.658,0.843,3.463,1.708,5.373,2.65c1.879,0.996,3.879,2.054,5.988,3.171
			c2.086,1.145,4.236,2.418,6.49,3.696c2.689,1.646,5.502,3.391,8.361,5.273h41.857C312.828,227.266,312.188,226.77,311.539,226.295
			z"/>
		<path style="fill:#333E48;" d="M288.496,216.991c-2.791-1.627-5.623-2.999-8.324-4.376c-1.346-0.7-2.734-1.26-4.063-1.872
			c-1.334-0.595-2.645-1.178-3.928-1.75c-2.617-1.027-5.094-2.07-7.494-2.943c-2.428-0.811-4.711-1.61-6.875-2.295
			c-2.186-0.631-4.217-1.246-6.109-1.763c-1.898-0.496-3.664-0.872-5.242-1.252c-0.791-0.184-1.539-0.358-2.242-0.522
			c-0.701-0.166-1.379-0.257-1.998-0.376c-1.24-0.22-2.295-0.408-3.15-0.56c-1.711-0.289-2.623-0.443-2.623-0.443
			c-1.568-0.267-3.164,0.597-3.76,2.141c-0.678,1.761,0.199,3.739,1.961,4.418l0.146,0.056c0,0,0.832,0.32,2.391,0.921
			c1.553,0.606,3.855,1.396,6.705,2.611c1.426,0.6,3.02,1.217,4.719,1.97c1.688,0.789,3.525,1.587,5.477,2.466
			c1.934,0.92,3.959,1.963,6.103,3.021c2.127,1.096,4.332,2.309,6.643,3.533c3.998,2.333,8.262,4.882,12.578,7.791h25.838
			C299.639,223.715,294.049,220.04,288.496,216.991z"/>
	</g>
</g>
<g>
</g>
<g>
</g>
<g>
</g>
<g>
</g>
<g>
</g>
<g>
</g>
<g>
</g>
<g>
</g>
<g>
</g>
<g>
</g>
<g>
</g>
<g>
</g>
<g>
</g>
<g>
</g>
<g>
</g>
</svg>
