<?xml version="1.0" encoding="utf-8"?>
<!-- Svg Vector Icons : http://www.onlinewebfonts.com/icon -->
<!DOCTYPE svg PUBLIC "-//W3C//DTD SVG 1.1//EN" "http://www.w3.org/Graphics/SVG/1.1/DTD/svg11.dtd">
<svg version="1.1" xmlns="http://www.w3.org/2000/svg" xmlns:xlink="http://www.w3.org/1999/xlink" x="0px" y="0px" viewBox="0 0 1000 1000" enable-background="new 0 0 1000 1000" xml:space="preserve">
<metadata> Svg Vector Icons : http://www.onlinewebfonts.com/icon </metadata>
<g><g transform="translate(0.000000,512.000000) scale(0.100000,-0.100000)"><path d="M4163.1,5014.3l-197.2-7.7v-147.5c0-80.4,17.2-543.9,38.3-1028.4c21.1-484.5,38.3-896.2,38.3-913.5c0-32.5-49.8-34.5-775.6-34.5h-777.5l-46-47.9c-63.2-61.3-63.2-149.4,0-210.7c24.9-26.8,63.2-47.9,86.2-47.9c26.8,0,38.3-13.4,38.3-42.1c0-61.3,572.6-6942,586-7039.7c11.5-95.8,99.6-206.8,193.4-245.1c91.9-40.2,3213.4-38.3,3305.4,0c80.4,32.5,160.9,128.3,183.8,218.3c15.3,57.4,597.5,6959.3,595.6,7076.1c0,21.1,15.3,32.6,38.3,32.6c23,0,61.3,21.1,86.2,47.9c63.2,61.3,63.2,149.4,0,210.7l-46,47.9H6082H4655.3l-1.9,72.8c0,38.3-19.2,519-42.1,1066.7l-42.1,995.8l-105.3,1.9C4406.3,5020,4270.4,5018.1,4163.1,5014.3z M7125.7,2563c1.9-24.9-429-5224.2-432.8-5230c-1.9-3.8-28.7,21.1-61.3,53.6c-137.9,137.9-386.9,24.9-386.9-176.2c0-70.8,72.8-168.5,145.5-199.1c80.4-34.5,157-23,229.8,36.3l51.7,40.2l-11.5-149.4c-7.7-84.3-13.4-181.9-13.4-220.2v-68.9l-36.4,76.6c-88.1,193.4-342.8,185.7-423.2-11.5c-99.6-237.5,270-421.3,404.1-201.1c44.1,72.7,44.1,80.4,7.7-323.7c-15.3-168.6-28.7-314.1-28.7-325.6c0-9.6-15.3,9.6-32.6,44c-38.3,78.6-113,118.8-218.3,118.8c-63.2,0-90-11.5-143.6-65.1c-55.5-55.5-65.1-78.5-65.1-151.3c0-206.8,231.7-308.3,383-166.6l57.5,53.6v-84.2v-84.3l-348.6,1.9c-204.9,0-335.1,7.7-312.1,17.2c84.3,34.4,134.1,113,134.1,212.6c0,78.5-9.6,101.5-59.4,153.2c-74.7,74.7-189.6,93.8-271.9,46c-153.2-90-158.9-296.8-11.5-394.5l55.5-36.4l-268.1,1.9c-160.9,0-252.8,7.7-229.8,17.2c84.3,34.4,134.1,113,134.1,212.6c0,78.5-9.6,101.5-59.4,153.2c-111.1,109.1-281.5,90-360-40.2c-61.3-105.3-24.9-247,82.4-312.2c46-28.7,7.7-30.6-601.3-32.5h-651.1l61.3,38.3c78.5,46,101.5,91.9,101.5,195.3c0,185.8-191.5,287.2-346.6,181.9c-134.1-90-134.1-281.5,0-371.5l65.1-44H3556c-95.8,0-107.2,3.8-107.2,38.3c0,23-128.3,1589.5-287.3,3485.4c-157,1895.9-287.3,3462.4-287.3,3485.4v38.3H5000C6170.1,2576.4,7125.7,2570.7,7125.7,2563z"/><path d="M5239.4-2525.3c-124.5-55.5-178.1-197.3-116.8-314.1c114.9-220.2,459.6-111,427.1,134.1c-11.5,88.1-55.5,143.6-141.7,180C5333.2-2492.7,5312.1-2492.7,5239.4-2525.3z"/><path d="M4031-2621c-53.6-53.6-65.1-80.4-65.1-143.6c0-149.4,84.3-239.4,220.2-239.4c136,0,220.2,90,220.2,239.4c0,63.2-11.5,90-65.1,143.6c-55.5,55.5-78.5,65.1-155.1,65.1S4086.5-2565.5,4031-2621z"/><path d="M3452.6-2667c-187.7-176.2,0-476.9,233.6-379.2c76.6,32.5,145.5,130.2,145.5,208.7C3831.8-2645.9,3590.5-2538.7,3452.6-2667z"/><path d="M4720.4-2850.8c-53.6-53.6-65.1-80.4-65.1-143.6c0-97.7,38.3-178.1,99.6-206.9c153.2-72.7,279.6-28.7,329.4,118.8c53.6,151.3-49.8,296.8-210.7,296.8C4798.9-2785.7,4775.9-2795.3,4720.4-2850.8z"/><path d="M5773.7-2891c-70.9-36.4-122.6-120.7-122.6-199.2c0-208.8,241.3-306.4,390.7-157c49.8,51.7,59.4,74.6,59.4,155.1c0,80.4-9.6,103.4-59.4,155.1C5969-2866.2,5861.8-2847,5773.7-2891z"/><path d="M5252.8-3103.6c-157-109.2-114.9-356.2,72.8-411.7c128.3-38.3,287.3,76.6,287.3,208.7c0,76.6-53.6,172.3-113,203C5425.1-3065.3,5308.3-3065.3,5252.8-3103.6z"/><path d="M4147.8-3109.4c-86.2-38.3-134.1-114.9-134.1-216.4c0-84.2,7.7-101.5,70.9-160.8c57.5-51.7,88.1-65.1,149.4-65.1s91.9,13.4,149.4,65.1c63.2,59.4,70.9,74.6,70.9,162.8c0,82.3-9.6,105.3-59.4,157C4331.6-3103.6,4218.7-3078.7,4147.8-3109.4z"/><path d="M4691.7-3390.9c-107.2-69-141.7-203-84.3-314.1c67-130.2,252.8-149.4,361.9-40.2c49.8,51.7,59.4,74.6,59.4,155.1c0,80.4-9.6,103.4-59.4,155.1C4894.7-3360.2,4770.2-3341.1,4691.7-3390.9z"/><path d="M3607.8-3475.1c-78.5-46-101.5-91.9-101.5-195.4c0-95.7,36.4-157,114.9-197.2c101.5-53.6,229.8-21.1,294.9,70.8c17.2,23,30.6,82.4,30.6,130.2c0,99.6-34.5,158.9-114.9,201.1C3757.1-3427.2,3680.5-3429.2,3607.8-3475.1z"/><path d="M5852.2-3456c-84.3-34.5-134-113-134-212.6c0-78.6,9.6-101.5,59.4-153.2c111.1-109.2,281.5-90,360,40.2C6244.8-3597.7,6049.4-3373.7,5852.2-3456z"/><path d="M5291.1-3582.4c-157.1-109.2-114.9-356.2,72.8-411.7c128.3-38.3,287.3,76.6,287.3,208.7c0,76.6-53.6,172.4-113,203C5463.4-3544.1,5346.6-3544.1,5291.1-3582.4z"/><path d="M4067.4-3704.9c-78.5-46-101.5-91.9-101.5-195.4c0-95.7,36.4-157,114.9-197.2c101.5-53.6,229.8-21.1,294.9,70.8c17.2,23,30.6,82.4,30.6,130.2c0,99.6-34.5,158.9-114.9,201.1C4216.7-3657.1,4140.1-3659,4067.4-3704.9z"/><path d="M4527-3934.7c-78.5-46-101.5-91.9-101.5-195.4c0-95.8,36.4-157,114.9-197.2c101.5-53.6,229.8-21.1,294.9,70.8c17.2,23,30.6,82.4,30.6,130.2c0,99.6-34.5,158.9-114.9,201.1C4676.4-3886.9,4599.8-3888.8,4527-3934.7z"/></g></g>
</svg>