<?xml version="1.0" encoding="UTF-8" standalone="no"?>
<!-- Created with Inkscape (http://www.inkscape.org/) -->

<svg
   xmlns:dc="http://purl.org/dc/elements/1.1/"
   xmlns:cc="http://creativecommons.org/ns#"
   xmlns:rdf="http://www.w3.org/1999/02/22-rdf-syntax-ns#"
   xmlns:svg="http://www.w3.org/2000/svg"
   xmlns="http://www.w3.org/2000/svg"
   xmlns:sodipodi="http://sodipodi.sourceforge.net/DTD/sodipodi-0.dtd"
   xmlns:inkscape="http://www.inkscape.org/namespaces/inkscape"
   width="139.05492mm"
   height="270mm"
   viewBox="0 0 492.71427 956.69291"
   id="svg15352"
   version="1.1"
   inkscape:version="0.91 r13725"
   sodipodi:docname="bubbletea.svg">
  <defs
     id="defs15354" />
  <sodipodi:namedview
     id="base"
     pagecolor="#ffffff"
     bordercolor="#666666"
     borderopacity="1.0"
     inkscape:pageopacity="0.0"
     inkscape:pageshadow="2"
     inkscape:zoom="0.23504865"
     inkscape:cx="-114.6557"
     inkscape:cy="554.19958"
     inkscape:document-units="px"
     inkscape:current-layer="g15951"
     showgrid="false"
     fit-margin-top="0"
     fit-margin-left="0"
     fit-margin-right="0"
     fit-margin-bottom="0"
     inkscape:window-width="1916"
     inkscape:window-height="1035"
     inkscape:window-x="4"
     inkscape:window-y="1"
     inkscape:window-maximized="1" />
  <metadata
     id="metadata15357">
    <rdf:RDF>
      <cc:Work
         rdf:about="">
        <dc:format>image/svg+xml</dc:format>
        <dc:type
           rdf:resource="http://purl.org/dc/dcmitype/StillImage" />
        <dc:title></dc:title>
      </cc:Work>
    </rdf:RDF>
  </metadata>
  <g
     inkscape:label="Layer 1"
     inkscape:groupmode="layer"
     id="layer1"
     transform="translate(626.35712,-87.771209)">
    <g
       id="g15951">
      <g
         id="g15991">
        <path
           style="fill:#d79b5f;fill-opacity:1;fill-rule:evenodd;stroke:#857b61;stroke-width:7;stroke-linecap:butt;stroke-linejoin:round;stroke-miterlimit:4;stroke-dasharray:none;stroke-opacity:1"
           d="m -594.28571,363.79078 62.85714,677.14282 300,-2.8571 54.28571,-680.00001 z"
           id="path15911"
           inkscape:connector-curvature="0" />
        <path
           d="m -467.97621,868.99711 a 25.714285,25.714285 0 0 1 34.92578,10.08171 25.714285,25.714285 0 0 1 -10.05535,34.93338 25.714285,25.714285 0 0 1 -34.94095,-10.02898 25.714285,25.714285 0 0 1 10.00259,-34.94851"
           sodipodi:open="true"
           sodipodi:end="4.2053708"
           sodipodi:start="4.2083903"
           sodipodi:ry="25.714285"
           sodipodi:rx="25.714285"
           sodipodi:cy="891.51404"
           sodipodi:cx="-455.55798"
           sodipodi:type="arc"
           id="path15921"
           style="opacity:1;fill:#56463a;fill-opacity:1;stroke:#937e42;stroke-width:3;stroke-linecap:round;stroke-linejoin:round;stroke-miterlimit:4;stroke-dasharray:none;stroke-opacity:1" />
        <path
           style="fill:#89b480;fill-opacity:1;fill-rule:evenodd;stroke:#857b61;stroke-width:7;stroke-linecap:round;stroke-linejoin:round;stroke-miterlimit:4;stroke-dasharray:none;stroke-opacity:1"
           d="m -502.85714,109.50506 57.14285,668.57143 11.42857,219.99995 c 0,0 74.30838,-2.85711 54.28572,-2.85709 l -42.85714,-648.57143 c 0,0 -10.16216,-244.30718 -22.85714,-242.85715 -25.75394,2.94164 -57.14286,5.71429 -57.14286,5.71429 z"
           id="path15913"
           inkscape:connector-curvature="0"
           sodipodi:nodetypes="cccccsc" />
        <path
           style="opacity:1;fill:#56463a;fill-opacity:1;stroke:#937e42;stroke-width:3;stroke-linecap:round;stroke-linejoin:round;stroke-miterlimit:4;stroke-dasharray:none;stroke-opacity:1"
           id="path15931"
           sodipodi:type="arc"
           sodipodi:cx="-382.85718"
           sodipodi:cy="906.64789"
           sodipodi:rx="25.714285"
           sodipodi:ry="25.714285"
           sodipodi:start="4.2083903"
           sodipodi:end="4.2053708"
           sodipodi:open="true"
           d="m -395.2754,884.13096 a 25.714285,25.714285 0 0 1 34.92577,10.08171 25.714285,25.714285 0 0 1 -10.05535,34.93338 25.714285,25.714285 0 0 1 -34.94095,-10.02898 25.714285,25.714285 0 0 1 10.0026,-34.94851" />
        <path
           sodipodi:nodetypes="cccccsc"
           inkscape:connector-curvature="0"
           id="path15923"
           d="m -482.85714,358.07649 37.14285,420 11.42857,219.99995 c 0,0 74.30838,-2.85711 54.28572,-2.85709 l -42.85714,-648.57143 c 0,0 -1.60685,4.12942 -14.28571,5.71428 -45.71429,5.71429 -45.71429,5.71429 -45.71429,5.71429 z"
           style="fill:#81a47a;fill-opacity:1;fill-rule:evenodd;stroke:#726a55;stroke-width:7;stroke-linecap:butt;stroke-linejoin:miter;stroke-miterlimit:4;stroke-dasharray:none;stroke-opacity:1" />
        <rect
           style="opacity:1;fill:#d6d6d6;fill-opacity:1;stroke:#857b61;stroke-width:7;stroke-linecap:round;stroke-linejoin:round;stroke-miterlimit:4;stroke-dasharray:none;stroke-opacity:1"
           id="rect15915"
           width="485.71429"
           height="37.142857"
           x="-622.85712"
           y="332.36221"
           rx="9.9674988"
           ry="29.967501" />
        <path
           style="opacity:1;fill:#56463a;fill-opacity:1;stroke:#937e42;stroke-width:3;stroke-linecap:round;stroke-linejoin:round;stroke-miterlimit:4;stroke-dasharray:none;stroke-opacity:1"
           id="path15917"
           sodipodi:type="arc"
           sodipodi:cx="-345.71429"
           sodipodi:cy="849.50507"
           sodipodi:rx="25.714285"
           sodipodi:ry="25.714285"
           sodipodi:start="4.2083903"
           sodipodi:end="4.2053708"
           sodipodi:open="true"
           d="m -358.13252,826.98813 a 25.714285,25.714285 0 0 1 34.92578,10.08172 25.714285,25.714285 0 0 1 -10.05535,34.93337 25.714285,25.714285 0 0 1 -34.94096,-10.02897 25.714285,25.714285 0 0 1 10.0026,-34.94852" />
        <path
           d="m -327.52982,892.30057 a 25.714285,25.714285 0 0 1 34.92577,10.08172 25.714285,25.714285 0 0 1 -10.05535,34.93337 25.714285,25.714285 0 0 1 -34.94095,-10.02897 25.714285,25.714285 0 0 1 10.00259,-34.94852"
           sodipodi:open="true"
           sodipodi:end="4.2053708"
           sodipodi:start="4.2083903"
           sodipodi:ry="25.714285"
           sodipodi:rx="25.714285"
           sodipodi:cy="914.8175"
           sodipodi:cx="-315.1116"
           sodipodi:type="arc"
           id="path15925"
           style="opacity:1;fill:#56463a;fill-opacity:1;stroke:#937e42;stroke-width:3;stroke-linecap:round;stroke-linejoin:round;stroke-miterlimit:4;stroke-dasharray:none;stroke-opacity:1" />
        <path
           style="opacity:1;fill:#56463a;fill-opacity:1;stroke:#937e42;stroke-width:3;stroke-linecap:round;stroke-linejoin:round;stroke-miterlimit:4;stroke-dasharray:none;stroke-opacity:1"
           id="path15927"
           sodipodi:type="arc"
           sodipodi:cx="-251.42859"
           sodipodi:cy="855.2193"
           sodipodi:rx="25.714285"
           sodipodi:ry="25.714285"
           sodipodi:start="4.2083903"
           sodipodi:end="4.2053708"
           sodipodi:open="true"
           d="m -263.84681,832.70237 a 25.714285,25.714285 0 0 1 34.92577,10.08171 25.714285,25.714285 0 0 1 -10.05535,34.93338 25.714285,25.714285 0 0 1 -34.94095,-10.02898 25.714285,25.714285 0 0 1 10.0026,-34.94851" />
        <path
           d="m -387.10575,921.22922 a 25.714285,25.714285 0 0 1 34.92577,10.08172 25.714285,25.714285 0 0 1 -10.05535,34.93337 25.714285,25.714285 0 0 1 -34.94095,-10.02897 25.714285,25.714285 0 0 1 10.00259,-34.94852"
           sodipodi:open="true"
           sodipodi:end="4.2053708"
           sodipodi:start="4.2083903"
           sodipodi:ry="25.714285"
           sodipodi:rx="25.714285"
           sodipodi:cy="943.74615"
           sodipodi:cx="-374.68753"
           sodipodi:type="arc"
           id="path15929"
           style="opacity:1;fill:#56463a;fill-opacity:1;stroke:#937e42;stroke-width:3;stroke-linecap:round;stroke-linejoin:round;stroke-miterlimit:4;stroke-dasharray:none;stroke-opacity:1" />
        <path
           d="m -303.84681,972.70237 a 25.714285,25.714285 0 0 1 34.92577,10.08171 25.714285,25.714285 0 0 1 -10.05535,34.93342 25.714285,25.714285 0 0 1 -34.94095,-10.029 25.714285,25.714285 0 0 1 10.0026,-34.94853"
           sodipodi:open="true"
           sodipodi:end="4.2053708"
           sodipodi:start="4.2083903"
           sodipodi:ry="25.714285"
           sodipodi:rx="25.714285"
           sodipodi:cy="995.2193"
           sodipodi:cx="-291.42859"
           sodipodi:type="arc"
           id="path15933"
           style="opacity:1;fill:#56463a;fill-opacity:1;stroke:#937e42;stroke-width:3;stroke-linecap:round;stroke-linejoin:round;stroke-miterlimit:4;stroke-dasharray:none;stroke-opacity:1" />
        <path
           style="opacity:1;fill:#56463a;fill-opacity:1;stroke:#937e42;stroke-width:3;stroke-linecap:round;stroke-linejoin:round;stroke-miterlimit:4;stroke-dasharray:none;stroke-opacity:1"
           id="path15935"
           sodipodi:type="arc"
           sodipodi:cx="-257.14288"
           sodipodi:cy="938.07642"
           sodipodi:rx="25.714285"
           sodipodi:ry="25.714285"
           sodipodi:start="4.2083903"
           sodipodi:end="4.2053708"
           sodipodi:open="true"
           d="m -269.56111,915.55948 a 25.714285,25.714285 0 0 1 34.92578,10.08172 25.714285,25.714285 0 0 1 -10.05535,34.93337 25.714285,25.714285 0 0 1 -34.94095,-10.02897 25.714285,25.714285 0 0 1 10.00259,-34.94852" />
        <path
           d="m -376.54768,979.62205 a 25.714285,25.714285 0 0 1 34.92578,10.08171 25.714285,25.714285 0 0 1 -10.05535,34.93334 25.714285,25.714285 0 0 1 -34.94096,-10.0289 25.714285,25.714285 0 0 1 10.0026,-34.94856"
           sodipodi:open="true"
           sodipodi:end="4.2053708"
           sodipodi:start="4.2083903"
           sodipodi:ry="25.714285"
           sodipodi:rx="25.714285"
           sodipodi:cy="1002.139"
           sodipodi:cx="-364.12946"
           sodipodi:type="arc"
           id="path15937"
           style="opacity:1;fill:#56463a;fill-opacity:1;stroke:#937e42;stroke-width:3;stroke-linecap:round;stroke-linejoin:round;stroke-miterlimit:4;stroke-dasharray:none;stroke-opacity:1" />
        <path
           style="opacity:1;fill:#56463a;fill-opacity:1;stroke:#937e42;stroke-width:3;stroke-linecap:round;stroke-linejoin:round;stroke-miterlimit:4;stroke-dasharray:none;stroke-opacity:1"
           id="path15939"
           sodipodi:type="arc"
           sodipodi:cx="-425.71432"
           sodipodi:cy="1000.9336"
           sodipodi:rx="25.714285"
           sodipodi:ry="25.714285"
           sodipodi:start="4.2083903"
           sodipodi:end="4.2053708"
           sodipodi:open="true"
           d="m -438.13255,978.41666 a 25.714285,25.714285 0 0 1 34.92578,10.08172 25.714285,25.714285 0 0 1 -10.05535,34.93342 25.714285,25.714285 0 0 1 -34.94096,-10.029 25.714285,25.714285 0 0 1 10.0026,-34.94854" />
        <path
           d="m -483.84684,944.13096 a 25.714285,25.714285 0 0 1 34.92577,10.08171 25.714285,25.714285 0 0 1 -10.05535,34.93338 25.714285,25.714285 0 0 1 -34.94095,-10.02898 25.714285,25.714285 0 0 1 10.0026,-34.94851"
           sodipodi:open="true"
           sodipodi:end="4.2053708"
           sodipodi:start="4.2083903"
           sodipodi:ry="25.714285"
           sodipodi:rx="25.714285"
           sodipodi:cy="966.64789"
           sodipodi:cx="-471.42862"
           sodipodi:type="arc"
           id="path15941"
           style="opacity:1;fill:#56463a;fill-opacity:1;stroke:#937e42;stroke-width:3;stroke-linecap:round;stroke-linejoin:round;stroke-miterlimit:4;stroke-dasharray:none;stroke-opacity:1" />
        <path
           style="opacity:1;fill:#56463a;fill-opacity:1;stroke:#937e42;stroke-width:3;stroke-linecap:round;stroke-linejoin:round;stroke-miterlimit:4;stroke-dasharray:none;stroke-opacity:1"
           id="path15943"
           sodipodi:type="arc"
           sodipodi:cx="-514.39722"
           sodipodi:cy="905.26416"
           sodipodi:rx="25.714285"
           sodipodi:ry="25.714285"
           sodipodi:start="4.2083903"
           sodipodi:end="4.2053708"
           sodipodi:open="true"
           d="m -526.81544,882.74723 a 25.714285,25.714285 0 0 1 34.92577,10.08171 25.714285,25.714285 0 0 1 -10.05534,34.93338 25.714285,25.714285 0 0 1 -34.94096,-10.02898 25.714285,25.714285 0 0 1 10.0026,-34.94851" />
        <path
           style="opacity:1;fill:#56463a;fill-opacity:1;stroke:#937e42;stroke-width:3;stroke-linecap:round;stroke-linejoin:round;stroke-miterlimit:4;stroke-dasharray:none;stroke-opacity:1"
           id="path15945"
           sodipodi:type="arc"
           sodipodi:cx="-486.89694"
           sodipodi:cy="996.00061"
           sodipodi:rx="25.714285"
           sodipodi:ry="25.714285"
           sodipodi:start="4.2083903"
           sodipodi:end="4.2053708"
           sodipodi:open="true"
           d="m -499.31516,973.48368 a 25.714285,25.714285 0 0 1 34.92577,10.08171 25.714285,25.714285 0 0 1 -10.05535,34.93341 25.714285,25.714285 0 0 1 -34.94095,-10.029 25.714285,25.714285 0 0 1 10.00259,-34.94852" />
        <path
           d="m -520.18565,821.25199 a 25.714285,25.714285 0 0 1 34.92578,10.08172 25.714285,25.714285 0 0 1 -10.05535,34.93337 25.714285,25.714285 0 0 1 -34.94096,-10.02898 25.714285,25.714285 0 0 1 10.0026,-34.94851"
           sodipodi:open="true"
           sodipodi:end="4.2053708"
           sodipodi:start="4.2083903"
           sodipodi:ry="25.714285"
           sodipodi:rx="25.714285"
           sodipodi:cy="843.76892"
           sodipodi:cx="-507.76743"
           sodipodi:type="arc"
           id="path15947"
           style="opacity:1;fill:#56463a;fill-opacity:1;stroke:#937e42;stroke-width:3;stroke-linecap:round;stroke-linejoin:round;stroke-miterlimit:4;stroke-dasharray:none;stroke-opacity:1" />
        <path
           style="opacity:1;fill:#56463a;fill-opacity:1;stroke:#937e42;stroke-width:3;stroke-linecap:round;stroke-linejoin:round;stroke-miterlimit:4;stroke-dasharray:none;stroke-opacity:1"
           id="path15949"
           sodipodi:type="arc"
           sodipodi:cx="-269.59848"
           sodipodi:cy="879.37152"
           sodipodi:rx="25.714285"
           sodipodi:ry="25.714285"
           sodipodi:start="4.2083903"
           sodipodi:end="4.2053708"
           sodipodi:open="true"
           d="m -282.0167,856.85459 a 25.714285,25.714285 0 0 1 34.92577,10.08172 25.714285,25.714285 0 0 1 -10.05535,34.93337 25.714285,25.714285 0 0 1 -34.94095,-10.02898 25.714285,25.714285 0 0 1 10.00259,-34.94851" />
      </g>
    </g>
  </g>
</svg>
